<svg width="108" height="222" viewBox="0 0 108 222" fill="none" xmlns="http://www.w3.org/2000/svg">
<path d="M39.1002 0.114257C25.6159 11.1638 15.236 25.7187 8.57003 41.7785C1.77073 58.1433 -1.27658 76.3178 0.513716 93.997C1.44695 103.18 3.82766 112.476 9.04617 120.192C14.3028 127.965 22.1305 133.68 30.3392 138.043C38.7003 142.501 47.9565 145.815 57.4222 146.787C66.0499 147.682 75.287 146.406 82.4482 141.205C93.5328 133.147 97.4752 113.677 84.9051 105.066C81.4197 102.684 77.2678 101.503 73.1158 100.989C68.621 100.436 63.9167 100.589 59.5172 101.713C51.0609 103.865 44.8901 110.019 41.2714 117.792C33.6913 134.023 35.8625 153.95 42.8522 169.972C50.1277 186.661 63.2882 200.072 79.058 208.969C94.1422 217.504 111.436 222.076 128.786 221.981C145.546 221.886 162.44 217.371 176.381 207.921C179.752 205.635 182.952 203.044 185.904 200.244C186.342 199.825 185.676 199.139 185.238 199.577C173.315 210.912 157.831 217.733 141.623 220.095C125.282 222.476 108.426 220.381 93.0376 214.494C76.8297 208.302 61.9741 197.882 51.7847 183.708C41.3667 169.248 35.8815 150.864 38.0718 133.051C39.0812 124.821 41.8238 116.344 47.4422 110.076C53.6321 103.18 62.7169 101.046 71.6874 101.789C79.7437 102.456 88.0857 106.056 90.8283 114.267C93.0566 120.935 91.3806 128.574 87.6095 134.347C77.6106 149.702 55.9937 147.32 41.1572 141.834C32.3009 138.557 23.5971 133.813 16.6073 127.393C9.76991 121.106 5.4275 113.048 3.2182 104.075C1.08509 95.464 0.685127 86.4148 1.23745 77.5942C1.77073 69.0594 3.31343 60.6008 5.80841 52.428C10.7222 36.3109 19.2737 21.2226 30.9296 9.03007C33.7294 6.09624 36.7005 3.35291 39.843 0.781038C40.243 0.40002 39.5764 -0.266761 39.1002 0.114257Z" fill="white"/>
</svg>
