<svg width="62" height="59" viewBox="0 0 62 59" fill="none" xmlns="http://www.w3.org/2000/svg">
<g clip-path="url(#clip0_191_636)">
<path d="M37.4881 30.5771C32.3949 27.3082 26.9832 24.6347 21.3474 22.4974C20.5034 22.1974 20.195 23.5465 21.039 23.8465C26.5681 25.9181 31.8792 28.5883 36.8657 31.7914C37.6035 32.2898 38.2495 31.0607 37.4881 30.5771Z" fill="white"/>
<path d="M36.1007 46.5783C30.0377 48.9708 23.7489 50.8432 17.3585 52.184C16.5006 52.3885 16.9054 53.7225 17.7782 53.5418C24.1686 52.201 30.4425 50.3048 36.5204 47.936C37.3514 47.5831 36.9466 46.2491 36.1007 46.5783Z" fill="white"/>
<path d="M48.8291 18.5807C46.5607 12.6251 44.3072 6.69332 42.0388 0.737703C41.7207 -0.0884881 40.3777 0.286257 40.7106 1.13625C42.979 7.09186 45.2326 13.0237 47.501 18.9793C47.7954 19.8202 49.1384 19.4455 48.8291 18.5807Z" fill="white"/>
</g>
<defs>
<clipPath id="clip0_191_636">
<rect x="20.1067" y="58.1714" width="38" height="49" rx="2" transform="rotate(-121.946 20.1067 58.1714)" fill="white"/>
</clipPath>
</defs>
</svg>
